<?xml version="1.0" encoding="UTF-8"?>
<svg id="Layer_1" xmlns="http://www.w3.org/2000/svg" version="1.1" viewBox="0 0 80.38 57.88">
  <!-- Generator: Adobe Illustrator 29.7.1, SVG Export Plug-In . SVG Version: 2.1.1 Build 8)  -->
  <g id="jxwUPI.tif">
    <g>
      <path d="M76.73,30.11c-1.34-2.06-3.25-3.98-4.63-6.04l-7.01-13.93c-.35-.55-1.18-1.05-1.84-1.05h-10.05v-2.69c0-1.12-1.25-2.23-2.35-2.19H11.76c-2,.08-3.06,2.45-1.71,3.96.3.35,1.03.8,1.49.8h36.95v16.71c0,1.06,1.1,2.14,2.14,2.19h18.43l3.39,4.39v12.22h-4.42c-.5-2.21-1.87-4.2-3.71-5.49-2.94-2.08-6.82-2.28-9.97-.52-2.29,1.27-3.93,3.47-4.57,6.01l-13.79-.03c-.84-3.52-3.8-6.36-7.38-7.01-1.27-.23-2.66-.2-3.92.09-3.37.79-6.17,3.56-6.92,6.94h-6.06c-3.02.31-3.02,4.56.13,4.77h6.01c.64,2.34,2.28,4.42,4.39,5.61,4.94,2.79,11.16.6,13.31-4.6.1-.24.22-.77.32-.95.03-.04.04-.07.1-.07h13.89c.35,1.01.77,1.99,1.4,2.86,2.98,4.2,8.76,5.26,13.02,2.29,1.77-1.23,3.07-3.07,3.67-5.14h6.86c1.3-.09,2.23-.93,2.36-2.23v-15.68c-.03-.45-.2-.85-.44-1.22ZM53.2,23.11v-9.3h8.5l4.63,9.3h-13.13ZM30.45,49.7c-2.39,2.82-7.02,1.87-8.06-1.66-.19-.66-.22-1.87-.05-2.54.48-1.98,2.32-3.43,4.34-3.52,4.05-.17,6.39,4.63,3.77,7.72ZM62.95,49.06c-1.72,2.91-5.89,3.09-7.85.33-2.15-3.03-.07-7.23,3.62-7.41,3.69-.18,6.11,3.9,4.23,7.08Z"/>
      <path d="M25.31,27.95H5c-2.88-.28-2.92-4.47.01-4.74h20.21c3,.21,3.02,4.44.09,4.74Z"/>
      <path d="M29.05,18.9H8.87c-2.73-.34-2.89-4.3-.2-4.87h20.54c2.72.52,2.59,4.54-.16,4.87Z"/>
      <path d="M19.91,37.25h-10.92c-3.05-.18-3.13-4.36-.19-4.74h10.99c3.05.18,3.08,4.44.12,4.74Z"/>
    </g>
  </g>
</svg>