<svg width="96" height="96" viewBox="0 0 96 96" fill="none" xmlns="http://www.w3.org/2000/svg">
<rect width="96" height="96" fill="white"/>
<path d="M41.2166 86H27.7276C27.4005 86 27.2214 85.822 27.1824 85.4583L14.0206 9.43332C13.9505 9.14702 14.0595 9 14.3477 9H26.8553C27.1435 9 27.3226 9.14702 27.4005 9.43332L34.5266 59.4125L41.8708 9.43332C41.9409 9.14702 42.1589 9 42.525 9H52.5872C52.8753 9 53.0545 9.14702 53.1323 9.43332L60.3675 59.4125L67.6026 9.43332C67.6727 9.14702 67.8518 9 68.1478 9H80.5464C80.9124 9 81.0526 9.14702 80.9825 9.43332L67.7116 85.4583C67.6727 85.6054 67.5637 85.7292 67.3845 85.8375L67.1665 86H53.6775C53.4594 86 53.2803 85.822 53.1323 85.4583L47.4237 45.7396L41.7695 85.4583C41.7306 85.822 41.5515 86 41.2244 86H41.2166Z" fill="#444935"/>
</svg>
