<svg width="144" height="144" viewBox="0 0 144 144" fill="none" xmlns="http://www.w3.org/2000/svg">
<rect width="144" height="144" fill="white"/>
<path d="M64.1534 124H46.2352C45.8007 124 45.5627 123.762 45.511 123.275L28.0273 21.5796C27.9342 21.1967 28.0791 21 28.4618 21H45.0765C45.4593 21 45.6972 21.1967 45.8007 21.5796L55.2667 88.4349L65.0224 21.5796C65.1155 21.1967 65.4051 21 65.8914 21H79.2576C79.6404 21 79.8783 21.1967 79.9818 21.5796L89.5926 88.4349L99.2035 21.5796C99.2966 21.1967 99.5345 21 99.9276 21H116.397C116.884 21 117.07 21.1967 116.977 21.5796L99.3483 123.275C99.2966 123.472 99.1517 123.638 98.9138 123.783L98.6241 124H80.7059C80.4163 124 80.1783 123.762 79.9818 123.275L72.3986 70.1452L64.8879 123.275C64.8362 123.762 64.5982 124 64.1637 124H64.1534Z" fill="#444935"/>
</svg>
