<svg width="48" height="48" viewBox="0 0 48 48" fill="none" xmlns="http://www.w3.org/2000/svg">
<rect width="48" height="48" fill="white"/>
<path d="M20.4052 42H13.7614C13.6002 42 13.512 41.9145 13.4928 41.7397L7.01013 5.20822C6.97561 5.07065 7.02931 5 7.17124 5H13.3317C13.4737 5 13.5619 5.07065 13.6002 5.20822L17.1101 29.2242L20.7274 5.20822C20.7619 5.07065 20.8693 5 21.0496 5H26.0056C26.1476 5 26.2358 5.07065 26.2741 5.20822L29.8377 29.2242L33.4013 5.20822C33.4358 5.07065 33.524 5 33.6698 5H39.7766C39.9569 5 40.0259 5.07065 39.9914 5.20822L33.455 41.7397C33.4358 41.8104 33.3821 41.8699 33.2939 41.9219L33.1865 42H26.5427C26.4353 42 26.347 41.9145 26.2741 41.7397L23.4624 22.6541L20.6775 41.7397C20.6583 41.9145 20.5701 42 20.409 42H20.4052Z" fill="#444935"/>
</svg>
