<svg width="22" height="39" viewBox="0 0 22 39" fill="none" xmlns="http://www.w3.org/2000/svg">
<path fill-rule="evenodd" clip-rule="evenodd" d="M21.267 38.4297C20.457 39.1901 19.147 39.1901 18.339 38.4297L1.21333 22.3157C0.829983 21.9605 0.524733 21.533 0.316149 21.0591C0.107564 20.5853 1.79519e-06 20.0751 1.79519e-06 19.5595C1.79519e-06 19.0439 0.107564 18.5336 0.316149 18.0598C0.524733 17.586 0.829983 17.1585 1.21333 16.8033L18.463 0.570364C18.8545 0.207579 19.3729 0.00367066 19.913 4.90769e-05C20.4531 -0.0035725 20.9744 0.193365 21.371 0.550865C21.5674 0.727409 21.7246 0.941394 21.8328 1.17957C21.941 1.41774 21.9979 1.67504 21.9999 1.93552C22.002 2.196 21.9492 2.45412 21.8448 2.69389C21.7404 2.93367 21.5866 3.14999 21.393 3.32947L5.60526 18.1819C5.41342 18.3595 5.26067 18.5733 5.15628 18.8103C5.05189 19.0473 4.99806 19.3025 4.99806 19.5605C4.99806 19.8184 5.05189 20.0736 5.15628 20.3106C5.26067 20.5476 5.41342 20.7614 5.60526 20.939L21.267 35.6744C21.4588 35.8519 21.6115 36.0655 21.7158 36.3024C21.8202 36.5392 21.874 36.7943 21.874 37.052C21.874 37.3098 21.8202 37.5649 21.7158 37.8017C21.6115 38.0386 21.4588 38.2522 21.267 38.4297Z" fill="#444935"/>
</svg>
