<svg width="111" height="48" viewBox="0 0 111 48" fill="none" xmlns="http://www.w3.org/2000/svg">
<path d="M13.8316 0.000244141C6.20431 0.000244141 0 6.2103 0 13.8396V33.6045C0 41.2318 6.21006 47.4361 13.8393 47.4361H33.6043C41.2316 47.4361 47.4359 41.2261 47.4359 33.5968V13.8319C47.4359 6.20456 41.2258 0.000244141 33.5966 0.000244141H13.8316ZM37.5534 7.90623C38.6444 7.90623 39.5299 8.7917 39.5299 9.88272C39.5299 10.9737 38.6444 11.8592 37.5534 11.8592C36.4624 11.8592 35.5769 10.9737 35.5769 9.88272C35.5769 8.7917 36.4624 7.90623 37.5534 7.90623ZM23.7179 11.8592C30.2582 11.8592 35.5769 17.178 35.5769 23.7182C35.5769 30.2584 30.2582 35.5772 23.7179 35.5772C17.1777 35.5772 11.859 30.2584 11.859 23.7182C11.859 17.178 17.1777 11.8592 23.7179 11.8592ZM23.7179 15.8122C21.6212 15.8122 19.6102 16.6452 18.1276 18.1278C16.6449 19.6105 15.812 21.6214 15.812 23.7182C15.812 25.815 16.6449 27.8259 18.1276 29.3086C19.6102 30.7912 21.6212 31.6242 23.7179 31.6242C25.8147 31.6242 27.8257 30.7912 29.3083 29.3086C30.791 27.8259 31.6239 25.815 31.6239 23.7182C31.6239 21.6214 30.791 19.6105 29.3083 18.1278C27.8257 16.6452 25.8147 15.8122 23.7179 15.8122Z" fill="#444935"/>
<path d="M106.688 0.000244141H67.8765C65.4939 0.000244141 63.5641 1.93002 63.5641 4.3126V43.1238C63.5641 45.5064 65.4939 47.4361 67.8765 47.4361H89.4383V28.0305H82.9697V21.562H89.4383V18.0884C89.4383 11.5121 92.6424 8.62495 98.1083 8.62495C100.726 8.62495 102.11 8.81901 102.766 8.90741V15.0935H99.0376C96.7175 15.0935 95.9068 16.3182 95.9068 18.7978V21.562H102.707L101.785 28.0305H95.9068V47.4361H106.688C109.07 47.4361 111 45.5064 111 43.1238V4.3126C111 1.93002 109.068 0.000244141 106.688 0.000244141Z" fill="#444935"/>
</svg>
