<?xml version="1.0" encoding="UTF-8"?>
<svg id="Layer_1" xmlns="http://www.w3.org/2000/svg" version="1.1" viewBox="0 0 105.76 98.61">
  <!-- Generator: Adobe Illustrator 29.7.1, SVG Export Plug-In . SVG Version: 2.1.1 Build 8)  -->
  <defs>
    <style>
      .st0 {
        fill-rule: evenodd;
      }
    </style>
  </defs>
  <path class="st0" d="M97.39,28.65c1.64,10.47-2.3,19.15-9.32,26.54-4.22,4.44-8.79,8.56-13.37,12.64-7.67,6.81-15.8,13.13-21.67,22.08-1.18-1.27-2.18-2.43-3.27-3.49-9.38-9.04-18.75-18.09-28.17-27.08-4.63-4.43-9.05-9.06-11.25-15.2-3.34-9.33-3.64-18.54,2.68-26.92,8-10.6,27.4-12.9,37.1,2.4.95,1.5,1.84,3.05,2.78,4.62,2.09-2.82,3.88-5.71,6.13-8.17,6.49-7.06,14.59-8.52,23.43-5.66,8.75,2.83,13.54,9.29,14.94,18.25Z"/>
</svg>