<?xml version="1.0" encoding="UTF-8"?>
<svg id="Layer_1" xmlns="http://www.w3.org/2000/svg" version="1.1" viewBox="0 0 1045 747">
  <!-- Generator: Adobe Illustrator 29.7.1, SVG Export Plug-In . SVG Version: 2.1.1 Build 8)  -->
  <defs>
    <style>
      .st0 {
        fill: none;
      }
    </style>
  </defs>
  <path d="M757.06,439.74c-4.24,19.63-7.97,43.69-27.09,50.73-1.3.48-8.71,2.53-9.47,2.53h-308.24c-4.54,0-7.9,4.21-6.89,8.63,2.19,9.53,4.6,22.2,8.59,25.91,2.67,2.48,9.43,3.31,15.99,3.53,4.09.14,8.1.05,10.99,0h.15l258.62-.09c8.7,0,16.83,4.84,20.48,12.74.77,1.66,1.3,3.35,1.56,5.02,2.37,15.5-9.35,26.13-24.21,26.3h-270.08c-30.62-1.62-50-13.26-59.9-42.89l-.12-.4-104.36-390.46c-.13-.45-.28-.9-.5-1.32-1.48-2.87-3.77-5.38-7.14-5.91-21.45-2.29-48.98,2.97-69.7-.3-23.99-3.79-24.29-40.5,2.87-43.65,16.95-1.97,53.49-1.51,70.87-.09,18.17,1.48,34.29,11.86,41.77,28.48.16.34.28.7.38,1.06l21.94,79.26c.84,3.06,3.63,5.18,6.8,5.18h64.57c3.9,0,7.06,3.16,7.06,7.06v171.44c0,7.73,2.88,15.67,7.55,22.85,10.59,16.3,28.84,26.01,48.27,26.47,95.91,2.24,192.56,1.8,288.48-.05l2.47-.1c5.58-.49,9.42,2.83,8.29,8.07Z"/>
  <path d="M648.74,231.23c4.45-.71,8.82.28,12.28,3.24,18.81,20.46,38.27,40.54,56.49,61.51,2.73,3.14,10.55,11.21,11.71,14.29,1.53,4.05,1.54,43.14.8,49.24-.37,3.11-1.64,5.54-3.58,7.41-2.35,2.27-5.58,3.39-8.84,3.4l-239.14.7c-9.37-.3-13.64-6.78-14.67-14.45-1.15-8.58,2.03-17.19,8.12-23.35l43.38-43.88c1.97-1.99,4.38-3.54,7.08-4.27,16.83-4.56,31.04,22.18,43.12,30.89l66.47-72.51c5.05-4.68,9.42-11.07,16.77-12.24Z"/>
  <path d="M647.83,589.25c57-2.09,61.37,83.32,7.66,88.74-62.04,6.26-66.37-86.59-7.66-88.74Z"/>
  <path d="M438.83,589.25c42.04-1.54,62.77,52.44,29.18,79.27-36.67,29.29-86.56-11.4-67.51-53.51,6.58-14.56,22.3-25.17,38.34-25.75Z"/>
  <path d="M527.67,186.39c41.11-.1,40.5,65.89-4.16,61.6-36.33-3.49-34.87-61.5,4.16-61.6Z"/>
  <path d="M738.71,412.48h-283.39c-19.02,0-34.49-15.47-34.49-34.49v-220.03c0-19.02,15.47-34.49,34.49-34.49h283.39c19.02,0,34.49,15.47,34.49,34.49v220.03c0,19.02-15.47,34.49-34.49,34.49ZM455.32,147.47c-5.78,0-10.49,4.71-10.49,10.49v220.03c0,5.78,4.71,10.49,10.49,10.49h283.39c5.78,0,10.49-4.71,10.49-10.49v-220.03c0-5.78-4.71-10.49-10.49-10.49h-283.39Z"/>
  <polyline class="st0" points="441.09 531.07 440.94 531.07 429.95 531.07"/>
</svg>