<svg width="236" height="144" viewBox="0 0 236 144" fill="none" xmlns="http://www.w3.org/2000/svg">
<rect width="236" height="144" fill="white"/>
<path d="M35.1501 90.7532H28.6327C28.4747 90.7532 28.3881 90.6659 28.3693 90.4876L22.0099 53.2125C21.9761 53.0721 22.0288 53 22.168 53H28.2113C28.3505 53 28.437 53.0721 28.4747 53.2125L31.9177 77.7173L35.4662 53.2125C35.5001 53.0721 35.6054 53 35.7823 53H40.644C40.7832 53 40.8698 53.0721 40.9074 53.2125L44.4032 77.7173L47.8989 53.2125C47.9328 53.0721 48.0193 53 48.1623 53H54.1529C54.3298 53 54.3975 53.0721 54.3637 53.2125L47.9516 90.4876C47.9328 90.5597 47.8801 90.6204 47.7936 90.6735L47.6882 90.7532H41.1708C41.0654 90.7532 40.9789 90.6659 40.9074 90.4876L38.1492 71.0135L35.4173 90.4876C35.3985 90.6659 35.3119 90.7532 35.1539 90.7532H35.1501Z" fill="#444935"/>
<path d="M63.8688 90.7532H57.7729C57.596 90.7532 57.5095 90.6659 57.5095 90.4876L57.5622 53.2125C57.5622 53.0721 57.6337 53 57.7729 53H63.8162C63.9554 53 64.0269 53.0721 64.0269 53.2125L64.0796 90.4876C64.0796 90.6659 64.0081 90.7532 63.8688 90.7532Z" fill="#444935"/>
<path d="M102.183 75.1223V90.5673C102.183 90.6925 102.104 90.7532 101.95 90.7532L69.4342 90.7076C69.2799 90.7076 69.2009 90.628 69.2009 90.4724V85.1533C69.2009 84.9978 69.2799 84.9181 69.4342 84.9181L96.3505 84.9637V75.1185C96.3505 74.9629 96.4295 74.8832 96.5838 74.8832H101.954C102.108 74.8832 102.187 74.9629 102.187 75.1185L102.183 75.1223Z" fill="#444935"/>
<path d="M102.138 62.9893L102.183 71.5522C102.183 71.7077 102.104 71.7874 101.95 71.7874L69.389 71.6964C69.2649 71.6964 69.2047 71.6357 69.2047 71.5105L69.1595 62.5758C69.1144 60.8041 69.5132 59.1992 70.3636 57.7689C71.2141 56.3235 72.358 55.1663 73.7992 54.3051C75.2404 53.4439 76.8359 53.0114 78.5781 53.0114H92.1849C94.0062 53.0114 95.6732 53.4553 97.1821 54.3392C98.6797 55.2422 99.8726 56.4411 100.757 57.9321C101.645 59.4269 102.104 61.1114 102.134 62.9969L102.138 62.9893ZM74.8265 62.5682L74.8716 65.9069L96.3467 65.9524V62.9893C96.3467 61.8094 95.9366 60.8116 95.12 60.0035C94.3034 59.1954 93.3213 58.7895 92.1812 58.7895H78.5292C77.5245 58.7895 76.6515 59.1613 75.9027 59.9087C75.1539 60.6561 74.7964 61.5439 74.8265 62.5682Z" fill="#444935"/>
<path d="M136.949 90.7532H130.431C130.273 90.7532 130.187 90.6659 130.168 90.4876L123.809 53.2125C123.775 53.0721 123.827 53 123.967 53H130.01C130.149 53 130.236 53.0721 130.273 53.2125L133.716 77.7173L137.265 53.2125C137.299 53.0721 137.404 53 137.581 53H142.443C142.582 53 142.668 53.0721 142.706 53.2125L146.202 77.7173L149.698 53.2125C149.732 53.0721 149.818 53 149.961 53H155.952C156.128 53 156.196 53.0721 156.162 53.2125L149.75 90.4876C149.732 90.5597 149.679 90.6204 149.592 90.6735L149.487 90.7532H142.97C142.864 90.7532 142.778 90.6659 142.706 90.4876L139.948 71.0135L137.216 90.4876C137.197 90.6659 137.111 90.7532 136.953 90.7532H136.949Z" fill="#444935"/>
<path d="M154.266 90.4914L160.941 53.2163C160.975 53.0759 161.062 53.0038 161.205 53.0038H169.009C169.148 53.0038 169.235 53.0759 169.272 53.2163L175.684 90.4914C175.699 90.6697 175.632 90.7569 175.474 90.7569H169.509C169.333 90.7569 169.235 90.6697 169.22 90.4914L168.64 86.5154H161.31L160.731 90.4914C160.712 90.6697 160.625 90.7569 160.467 90.7569H154.477C154.337 90.7569 154.266 90.6697 154.266 90.4914ZM165.355 65.4819L165.039 63.4674L164.802 65.4819L162.386 80.7145H167.564L165.355 65.4819Z" fill="#444935"/>
<path d="M214.883 73.8134V90.5521C214.883 90.6849 214.8 90.7531 214.631 90.7531L179.395 90.7038C179.229 90.7038 179.143 90.6204 179.143 90.4534V84.6867C179.143 84.5198 179.225 84.4325 179.395 84.4325L208.561 84.4818V73.8134C208.561 73.6464 208.644 73.5592 208.813 73.5592H214.631C214.796 73.5592 214.883 73.6426 214.883 73.8134Z" fill="#444935"/>
<path d="M214.883 53.2542V69.9929C214.883 70.1257 214.8 70.194 214.631 70.194L179.395 70.1447C179.229 70.1447 179.143 70.0612 179.143 69.8943V64.1275C179.143 63.9606 179.225 63.8733 179.395 63.8733L208.561 63.9227V53.2542C208.561 53.0873 208.644 53 208.813 53H214.631C214.796 53 214.883 53.0835 214.883 53.2542Z" fill="#444935"/>
</svg>
