<svg width="35" height="35" viewBox="0 0 35 35" fill="none" xmlns="http://www.w3.org/2000/svg">
<path d="M14.5745 0C6.5425 0 0 6.5425 0 14.5745C0 22.6066 6.5425 29.1491 14.5745 29.1491C18.0673 29.1491 21.275 27.9087 23.7889 25.8499L32.491 34.5519C32.6253 34.6918 32.7861 34.8034 32.9641 34.8804C33.1421 34.9573 33.3337 34.998 33.5276 34.9999C33.7215 35.0019 33.9138 34.9652 34.0933 34.8919C34.2729 34.8186 34.436 34.7102 34.5731 34.5731C34.7102 34.436 34.8186 34.2729 34.8919 34.0933C34.9652 33.9138 35.0019 33.7215 34.9999 33.5276C34.998 33.3337 34.9573 33.1421 34.8804 32.9641C34.8034 32.7861 34.6918 32.6253 34.5519 32.491L25.8499 23.7889C27.9087 21.275 29.1491 18.0673 29.1491 14.5745C29.1491 6.5425 22.6066 0 14.5745 0ZM14.5745 2.91491C21.0312 2.91491 26.2342 8.11784 26.2342 14.5745C26.2342 21.0312 21.0312 26.2342 14.5745 26.2342C8.11784 26.2342 2.91491 21.0312 2.91491 14.5745C2.91491 8.11784 8.11784 2.91491 14.5745 2.91491Z" fill="#444935"/>
</svg>
