<?xml version="1.0" encoding="UTF-8"?>
<svg id="Layer_1" xmlns="http://www.w3.org/2000/svg" version="1.1" viewBox="0 0 288.65 249.8">
  <!-- Generator: Adobe Illustrator 29.7.1, SVG Export Plug-In . SVG Version: 2.1.1 Build 8)  -->
  <defs>
    <style>
      .st0 {
        fill: #444935;
      }
    </style>
  </defs>
  <g>
    <path class="st0" d="M72.72,115.79h-17.32c-.42,0-.65-.23-.7-.7L37.81,16.84c-.09-.37.05-.56.42-.56h16.06c.37,0,.6.19.7.56l9.15,64.59,9.43-64.59c.09-.37.37-.56.84-.56h12.92c.37,0,.6.19.7.56l9.29,64.59,9.29-64.59c.09-.37.32-.56.7-.56h15.92c.47,0,.65.19.56.56l-17.04,98.25c-.05.19-.19.35-.42.49l-.28.21h-17.32c-.28,0-.51-.23-.7-.7l-7.33-51.33-7.26,51.33c-.05.47-.28.7-.7.7Z"/>
    <path class="st0" d="M149.05,115.79h-16.2c-.47,0-.7-.23-.7-.7l.14-98.25c0-.37.19-.56.56-.56h16.06c.37,0,.56.19.56.56l.14,98.25c0,.47-.19.7-.56.7Z"/>
    <path class="st0" d="M250.87,74.59v40.71c0,.33-.21.49-.62.49l-86.41-.12c-.41,0-.62-.21-.62-.62v-14.02c0-.41.21-.62.62-.62l71.53.12v-25.95c0-.41.21-.62.62-.62h14.27c.41,0,.62.21.62.62Z"/>
    <path class="st0" d="M250.74,42.61l.12,22.57c0,.41-.21.62-.62.62l-86.53-.24c-.33,0-.49-.16-.49-.49l-.12-23.55c-.12-4.67.94-8.9,3.2-12.67,2.26-3.81,5.3-6.86,9.13-9.13s8.07-3.41,12.7-3.41h36.16c4.84,0,9.27,1.17,13.28,3.5,3.98,2.38,7.15,5.54,9.5,9.47,2.36,3.94,3.58,8.38,3.66,13.35ZM178.17,41.5l.12,8.8,57.07.12v-7.81c0-3.11-1.09-5.74-3.26-7.87-2.17-2.13-4.78-3.2-7.81-3.2h-36.28c-2.67,0-4.99.98-6.98,2.95-1.99,1.97-2.94,4.31-2.86,7.01Z"/>
  </g>
  <g>
    <path class="st0" d="M58.24,233.51h-17.32c-.42,0-.65-.23-.7-.7l-16.9-98.25c-.09-.37.05-.56.42-.56h16.06c.37,0,.6.19.7.56l9.15,64.59,9.43-64.59c.09-.37.37-.56.84-.56h12.92c.37,0,.6.19.7.56l9.29,64.59,9.29-64.59c.09-.37.32-.56.7-.56h15.92c.47,0,.65.19.56.56l-17.04,98.25c-.05.19-.19.35-.42.49l-.28.21h-17.32c-.28,0-.51-.23-.7-.7l-7.33-51.33-7.26,51.33c-.05.47-.28.7-.7.7Z"/>
    <path class="st0" d="M104.26,232.82l17.74-98.25c.09-.37.32-.56.7-.56h20.74c.37,0,.6.19.7.56l17.04,98.25c.04.47-.14.7-.56.7h-15.85c-.47,0-.73-.23-.77-.7l-1.54-10.48h-19.48l-1.54,10.48c-.05.47-.28.7-.7.7h-15.92c-.37,0-.56-.23-.56-.7ZM133.72,166.9l-.84-5.31-.63,5.31-6.42,40.15h13.76l-5.87-40.15Z"/>
    <path class="st0" d="M265.35,188.86v44.12c0,.35-.22.53-.67.53l-93.64-.13c-.44,0-.67-.22-.67-.66v-15.2c0-.44.22-.67.67-.67l77.51.13v-28.12c0-.44.22-.67.67-.67h15.46c.44,0,.67.22.67.67Z"/>
    <path class="st0" d="M265.35,134.67v44.12c0,.35-.22.53-.67.53l-93.64-.13c-.44,0-.67-.22-.67-.66v-15.2c0-.44.22-.67.67-.67l77.51.13v-28.12c0-.44.22-.67.67-.67h15.46c.44,0,.67.22.67.67Z"/>
  </g>
</svg>